<?xml version="1.0" standalone="no"?>
<!DOCTYPE svg PUBLIC "-//W3C//DTD SVG 20010904//EN"
 "http://www.w3.org/TR/2001/REC-SVG-20010904/DTD/svg10.dtd">
<svg version="1.0" xmlns="http://www.w3.org/2000/svg"
 width="383.000000pt" height="383.000000pt" viewBox="0 0 383.000000 383.000000"
 preserveAspectRatio="xMidYMid meet">
<metadata>
Created by potrace 1.11, written by Peter Selinger 2001-2013
</metadata>
<g transform="translate(0.000000,383.000000) scale(0.100000,-0.100000)"
fill="#000000" stroke="none">
<path d="M2515 3800 c-16 -16 -35 -30 -42 -30 -17 0 -17 -11 1 -35 13 -18 15
-16 35 23 12 23 26 42 31 42 14 0 13 -5 -15 -60 -28 -55 -35 -59 -53 -30 -14
24 -47 26 -56 5 -3 -8 0 -15 6 -15 7 0 3 -6 -8 -14 -18 -14 -18 -15 -2 -21 14
-6 15 -11 7 -27 -8 -15 -13 -17 -25 -7 -11 9 -14 8 -14 -5 0 -9 -7 -19 -15
-22 -18 -7 -20 -34 -2 -34 6 0 4 -5 -5 -11 -10 -6 -18 -22 -18 -37 0 -15 -7
-38 -16 -50 -8 -12 -14 -28 -11 -35 2 -6 15 5 28 25 36 57 43 45 8 -14 -56
-97 -67 -92 -48 22 11 70 11 83 -2 91 -24 15 -29 10 -29 -25 0 -37 -18 -96
-29 -96 -16 0 -43 40 -55 82 -13 42 -13 118 -1 165 11 46 -70 70 -148 44 -46
-16 -70 -44 -71 -85 -1 -32 -3 -34 -31 -29 -90 14 -233 -112 -217 -192 2 -14
23 -40 46 -57 53 -42 58 -49 40 -63 -19 -13 -8 -46 37 -112 17 -24 33 -62 36
-83 4 -30 10 -40 26 -42 15 -2 24 -15 33 -48 18 -67 77 -187 90 -183 8 3 11
-14 10 -54 l-1 -58 -32 3 c-51 5 -57 -40 -7 -52 36 -9 28 -41 -9 -40 -25 1
-27 -1 -27 -42 0 -32 4 -44 15 -44 8 0 15 7 15 16 0 20 24 13 28 -9 2 -9 -6
-29 -17 -44 -28 -40 -36 -73 -18 -73 8 0 21 10 29 21 10 16 20 20 36 15 24 -8
29 -35 10 -54 -9 -9 -9 -15 1 -24 10 -11 15 -10 25 5 34 45 85 5 93 -74 8 -81
-6 -121 -45 -131 -31 -8 -32 -10 -27 -51 2 -23 7 -64 10 -92 9 -89 17 -118 26
-103 12 18 11 115 -2 161 -6 22 -9 40 -7 42 2 2 25 10 52 17 48 13 48 13 72
-17 15 -18 23 -39 21 -53 -3 -16 2 -26 17 -34 11 -6 23 -9 26 -7 2 2 8 -16 12
-40 4 -24 12 -48 17 -55 16 -19 -94 -186 -123 -186 -6 0 -6 4 1 11 8 8 7 20
-5 45 -14 26 -35 41 -107 75 -49 24 -98 42 -108 41 -41 -2 -83 -97 -72 -161
12 -70 47 -104 106 -103 l41 1 -6 -42 c-4 -23 -18 -68 -31 -101 l-24 -60 38
-81 c21 -44 56 -99 77 -122 37 -39 42 -52 67 -165 15 -68 27 -131 27 -142 0
-23 -86 -295 -100 -316 -8 -13 -10 -12 -10 3 0 38 -22 12 -67 -78 -26 -52 -50
-95 -54 -95 -10 0 -29 84 -29 130 0 23 5 50 10 61 9 16 7 19 -8 19 -10 0 -27
7 -38 15 -10 8 -24 15 -30 15 -6 0 -40 -64 -76 -142 -124 -272 -128 -288 -65
-288 30 0 35 5 62 57 70 136 78 147 85 127 4 -10 13 -51 20 -91 13 -78 29
-103 50 -78 14 16 6 65 -13 78 -7 5 -1 6 14 3 25 -6 29 -1 64 82 32 75 75 148
75 129 0 -15 -35 -95 -54 -121 -11 -16 -21 -49 -22 -73 -2 -32 -13 -58 -43
-100 -23 -31 -41 -60 -41 -64 0 -13 61 -29 111 -29 26 0 69 -9 95 -20 26 -11
55 -18 66 -14 16 5 10 11 -34 37 -65 40 -98 86 -98 140 0 38 35 117 52 117 5
0 24 25 43 55 20 30 40 55 46 55 5 0 -4 -21 -22 -46 -42 -61 -58 -118 -54
-192 2 -53 6 -64 31 -86 38 -33 70 -44 122 -41 128 8 201 159 137 285 -28 56
-32 80 -11 80 29 0 67 -242 52 -324 -4 -19 -18 -49 -32 -66 -21 -25 -25 -37
-20 -64 6 -30 11 -34 44 -39 54 -7 239 -3 248 5 11 12 0 18 -42 24 -22 3 -49
10 -60 16 -28 13 -58 70 -74 137 -16 68 -8 249 14 311 12 34 12 46 3 51 -9 5
-11 50 -7 175 3 116 1 175 -6 190 -19 35 -33 85 -40 139 -3 28 -10 52 -15 53
-5 2 -9 22 -9 44 0 23 -11 65 -26 96 -26 56 -41 123 -38 180 1 17 2 54 3 81 1
42 4 50 24 55 12 3 47 26 77 51 66 55 91 71 85 53 -2 -7 -6 -41 -9 -75 -4 -54
-2 -63 13 -63 9 0 33 -11 53 -25 20 -14 43 -25 50 -25 18 0 88 120 95 164 8
48 -2 73 -22 56 -12 -10 -15 -10 -15 2 0 8 -13 34 -29 59 -23 37 -26 47 -15
55 11 7 10 15 -7 42 -24 37 -37 39 -73 11 -32 -25 -32 -36 -3 -67 21 -24 21
-25 3 -36 -10 -6 -52 -33 -93 -61 -41 -27 -89 -60 -108 -72 l-34 -23 -6 38
c-3 20 -17 83 -31 139 -44 171 -44 173 44 320 41 71 88 144 104 164 17 23 28
49 28 68 0 60 -46 173 -123 300 -11 18 -35 67 -52 108 l-33 74 24 67 c13 37
24 81 24 98 0 17 6 37 14 43 8 7 18 38 21 69 4 31 16 76 27 100 19 40 19 44 4
61 -21 23 -20 32 9 88 17 30 22 49 15 51 -17 6 -59 -37 -82 -83 -24 -48 -57
-85 -75 -85 -18 0 -16 49 2 57 9 3 29 32 45 64 31 61 43 73 74 74 23 0 35 25
12 25 -22 0 -20 7 11 49 31 41 44 52 55 45 13 -8 9 21 -4 34 -10 10 -10 15 2
22 8 5 23 10 32 10 11 0 15 5 12 15 -4 8 1 32 9 54 12 28 13 41 4 50 -19 19
-52 12 -82 -19z m-392 -89 c13 -2 7 -19 -8 -25 -8 -3 -37 -8 -63 -12 -47 -6
-47 -6 -28 14 18 21 47 30 76 26 8 -1 18 -3 23 -3z m347 -60 c0 -19 -26 -48
-35 -39 -6 6 18 58 28 58 4 0 7 -8 7 -19z m-320 -37 c0 -8 -4 -14 -9 -14 -6 0
-9 9 -8 19 1 22 17 18 17 -5z m-28 -109 c1 -34 -10 -75 -20 -75 -4 0 -13 14
-19 31 -10 26 -10 29 3 19 12 -10 14 -8 16 16 2 36 1 41 -6 84 l-6 35 15 -40
c9 -22 16 -53 17 -70z m-212 46 c0 -10 -8 -22 -17 -26 -17 -6 -17 -7 0 -20 16
-12 16 -13 1 -19 -13 -5 -7 -17 35 -61 29 -30 50 -59 47 -64 -7 -10 -96 70
-96 87 0 17 -13 15 -64 -9 -49 -24 -79 -20 -69 8 9 26 34 53 44 47 5 -3 27 13
48 35 43 44 71 53 71 22z m250 -29 c0 -7 -4 -10 -10 -7 -5 3 -10 16 -10 28 0
18 2 19 10 7 5 -8 10 -21 10 -28z m-101 -101 c-12 -4 -69 47 -69 61 0 5 18 -6
40 -24 21 -18 34 -35 29 -37z m-59 -7 c0 -12 -5 -12 -30 1 -27 14 -29 18 -19
37 l12 22 18 -23 c11 -13 19 -30 19 -37z m221 -6 c12 -18 34 -45 47 -60 29
-31 19 -37 -18 -11 -32 22 -45 39 -71 86 -20 38 -20 38 0 28 11 -6 30 -26 42
-43z m-1 -85 c0 -13 -29 3 -56 33 -51 53 -41 65 11 14 25 -24 45 -45 45 -47z
m-150 60 c0 -7 -9 -13 -20 -13 -11 0 -23 0 -27 -1 -5 0 -9 7 -11 15 -2 11 5
14 27 14 19 -1 31 -6 31 -15z m-125 -43 c38 -30 40 -31 43 -11 2 12 10 21 17
21 12 0 12 -5 3 -25 -22 -49 -92 -23 -130 48 -8 16 -7 17 9 9 10 -6 36 -24 58
-42z m211 -37 c-10 -10 -47 10 -62 32 -28 43 -4 49 32 9 19 -20 32 -39 30 -41z
m-284 40 c21 -19 23 -33 5 -33 -8 0 -19 11 -25 25 -13 29 -6 32 20 8z m195
-28 c8 -22 -6 -33 -17 -15 -13 20 -12 30 0 30 6 0 13 -7 17 -15z m277 -94 c23
-43 27 -81 10 -81 -8 0 -14 3 -15 8 -4 35 -12 68 -20 84 -6 12 -6 18 0 18 6 0
17 -13 25 -29z m-408 -9 c-3 -2 2 -21 10 -41 9 -20 19 -48 24 -62 7 -24 6 -25
-22 -21 -17 3 -25 8 -19 12 16 9 2 42 -15 36 -16 -6 -34 23 -34 56 0 17 3 20
9 9 5 -8 7 -21 3 -29 -3 -10 0 -13 9 -10 9 4 13 18 12 43 -2 32 -1 35 12 25 9
-7 13 -15 11 -18z m154 -32 l17 -50 -24 0 c-20 0 -23 4 -18 20 4 12 2 20 -5
20 -6 0 -15 10 -19 23 -7 16 -5 25 7 34 20 16 21 14 42 -47z m64 44 c9 -23 7
-82 -2 -88 -18 -11 -30 12 -28 56 1 47 18 65 30 32z m77 -19 c4 -16 11 -40 14
-52 6 -19 4 -21 -15 -16 -21 6 -31 22 -43 74 -6 22 -4 26 15 25 16 -1 24 -10
29 -31z m61 -12 c3 -27 3 -50 1 -52 -9 -11 -25 21 -30 58 -4 33 -2 41 10 41
11 0 16 -13 19 -47z m-282 27 c0 -5 -6 -10 -14 -10 -8 0 -18 5 -21 10 -3 6 3
10 14 10 12 0 21 -4 21 -10z m392 -40 c3 -17 1 -33 -4 -36 -4 -3 -8 11 -8 30
0 44 6 47 12 6z m-372 -34 c0 -2 -7 -6 -15 -10 -8 -3 -15 -1 -15 4 0 6 7 10
15 10 8 0 15 -2 15 -4z m175 -116 c5 -21 2 -35 -9 -45 -14 -14 -16 -13 -22 10
-7 30 3 78 16 70 4 -3 11 -19 15 -35z m59 3 c-2 -52 -3 -55 -12 -49 -9 5 -3
86 7 86 4 0 6 -17 5 -37z m-224 -18 c0 -37 -22 -49 -34 -19 -12 32 -6 54 14
54 16 0 20 -7 20 -35z m52 0 c4 -16 4 -33 -1 -38 -4 -4 -13 10 -19 33 -7 30
-7 40 1 37 6 -2 14 -16 19 -32z m57 -6 c1 -30 -2 -40 -11 -37 -15 5 -18 78 -2
78 5 0 11 -18 13 -41z m198 -31 c-3 -7 -5 -2 -5 12 0 14 2 19 5 13 2 -7 2 -19
0 -25z m-303 -64 c9 -23 7 -44 -3 -44 -5 0 -14 14 -20 30 -8 24 -7 30 3 30 8
0 17 -7 20 -16z m74 -1 c-2 -5 2 -8 7 -8 6 0 9 3 8 8 -2 4 2 7 7 7 6 0 10 -9
10 -20 0 -22 -20 -26 -38 -8 -15 15 -16 28 -2 28 6 0 9 -3 8 -7z m102 -19 c0
-8 -4 -14 -10 -14 -5 0 -10 9 -10 21 0 11 5 17 10 14 6 -3 10 -13 10 -21z m88
-5 c-15 -10 -28 -2 -28 17 0 12 4 12 20 2 13 -8 16 -15 8 -19z m-34 -52 c-2
-7 -23 -12 -47 -13 -23 0 -58 -4 -79 -8 -21 -4 -39 -3 -42 3 -11 17 26 29 88
30 32 0 61 3 64 5 8 9 21 -4 16 -17z m97 -74 c22 -49 44 -97 49 -108 5 -11 25
-55 45 -98 l35 -78 -51 -102 c-46 -91 -125 -217 -136 -217 -37 0 -61 61 -49
124 6 32 11 36 60 50 56 17 74 31 81 64 2 11 8 37 14 58 10 35 9 41 -10 56
-14 12 -19 24 -14 39 5 15 -1 31 -22 57 -31 39 -46 114 -32 162 3 10 -3 15
-18 14 -13 0 -23 2 -23 6 0 8 24 60 28 60 2 0 21 -39 43 -87z m-61 -143 c6
-11 8 -20 6 -20 -3 0 -10 9 -16 20 -6 11 -8 20 -6 20 3 0 10 -9 16 -20z m-236
-725 c8 -8 23 -16 33 -18 27 -4 44 -17 52 -41 7 -18 4 -22 -21 -26 l-29 -5 25
-47 c20 -39 22 -48 10 -48 -14 0 -41 49 -47 87 -4 30 -16 41 -36 36 -22 -6
-36 25 -26 57 8 24 18 25 39 5z m293 -37 c49 -62 52 -226 8 -401 -26 -99 -31
-110 -68 -142 -22 -19 -47 -35 -55 -35 -22 0 -133 72 -149 96 -13 20 -12 27 6
63 24 47 12 64 -17 24 l-20 -28 -7 28 c-9 33 -4 54 27 128 19 46 29 59 57 69
42 15 94 67 150 148 46 65 52 70 68 50z m359 -34 c10 -29 10 -42 -1 -67 l-13
-31 -16 32 c-14 27 -14 37 -4 71 14 45 17 45 34 -5z m-46 -101 c0 -13 -3 -13
-15 -3 -8 7 -15 19 -15 27 0 13 3 13 15 3 8 -7 15 -19 15 -27z m110 16 c0 -5
-10 -9 -21 -9 -18 0 -19 2 -9 15 12 15 30 12 30 -6z m-20 -55 c0 -8 -4 -14 -9
-14 -12 0 -32 26 -25 33 10 9 34 -4 34 -19z m-105 6 c-3 -5 -10 -10 -16 -10
-5 0 -9 5 -9 10 0 6 7 10 16 10 8 0 12 -4 9 -10z m65 -41 c0 -13 -7 -19 -24
-19 -33 0 -40 15 -19 39 19 23 43 12 43 -20z m-310 -359 c0 -8 -113 -277 -165
-395 -7 -16 -16 -37 -19 -45 -3 -8 -4 4 -2 27 2 24 14 63 26 89 15 30 19 49
13 55 -7 7 -3 30 12 67 12 31 30 78 39 103 22 60 96 137 96 99z m51 -110 c-3
-8 -19 -39 -34 -68 -15 -29 -56 -126 -91 -215 -57 -145 -104 -246 -126 -271
-5 -4 -20 -4 -34 0 l-26 9 25 37 c30 44 104 192 149 296 44 102 86 189 110
231 17 30 21 32 26 15 4 -10 4 -26 1 -34z m-201 13 c0 -10 -7 -27 -15 -37 -14
-19 -15 -18 -24 5 -7 18 -5 27 7 37 22 17 32 15 32 -5z m235 -169 c14 -34 13
-40 -16 -113 -28 -71 -44 -101 -114 -226 -38 -69 -43 -74 -67 -70 -30 6 -30 7
-9 51 10 21 28 62 41 89 45 103 53 122 97 213 24 50 46 92 49 92 2 0 11 -16
19 -36z m30 -179 c-2 -25 -9 -62 -16 -83 -15 -46 -63 -118 -89 -132 -17 -9
-17 -6 5 48 51 125 90 211 96 212 4 0 5 -20 4 -45z m-606 -174 c12 -8 12 -12
2 -24 -9 -12 -8 -27 8 -74 23 -70 36 -147 23 -139 -5 3 -15 35 -22 71 -20 106
-32 104 -90 -20 -47 -100 -90 -171 -90 -147 0 19 142 342 150 342 3 0 11 -4
19 -9z m609 -15 c0 -25 -23 -43 -33 -26 -7 11 12 50 24 50 5 0 9 -11 9 -24z
m-160 -110 c97 -23 77 -237 -26 -277 -36 -14 -121 10 -140 40 -27 41 -22 130
10 178 40 61 81 76 156 59z m149 -373 c-3 -3 -11 -2 -17 2 -9 6 -9 10 1 16 14
8 27 -7 16 -18z"/>
<path d="M2330 1810 c-18 -18 -19 -24 -8 -37 12 -15 13 -15 16 0 2 10 7 17 12
17 12 0 20 29 10 35 -5 3 -19 -4 -30 -15z"/>
<path d="M2237 1673 c-4 -3 -7 -17 -7 -30 0 -33 24 -24 28 10 3 26 -7 35 -21
20z"/>
<path d="M2340 1660 c-8 -15 -8 -20 2 -20 22 0 41 17 34 29 -11 17 -24 13 -36
-9z"/>
<path d="M2116 1581 c-17 -19 -15 -41 4 -41 14 0 40 30 40 46 0 20 -24 17 -44
-5z"/>
<path d="M2309 1563 c-12 -32 2 -53 24 -35 8 7 16 9 19 6 3 -3 5 9 4 25 -1 40
-32 42 -47 4z"/>
<path d="M2178 1493 c-8 -31 2 -46 18 -26 7 10 14 24 14 31 0 19 -27 14 -32
-5z"/>
<path d="M2175 1380 c-11 -17 5 -32 21 -19 8 6 14 15 14 20 0 12 -27 11 -35
-1z"/>
<path d="M2314 490 c-12 -5 -25 -13 -29 -19 -3 -6 -11 -9 -16 -6 -5 4 -9 3
-10 -2 0 -4 -2 -17 -5 -28 -14 -73 -13 -96 6 -115 31 -31 85 -27 121 9 23 24
29 38 29 74 0 71 -42 108 -96 87z m50 -46 c19 -7 20 -42 3 -65 -17 -22 -64
-30 -71 -12 -10 26 -6 43 14 63 21 21 29 23 54 14z"/>
<path d="M817 1369 c-9 -6 -26 -7 -37 -4 -14 4 -20 2 -20 -9 0 -9 -22 -27 -50
-41 l-50 -25 2 -128 c1 -70 -1 -187 -6 -259 l-8 -133 36 0 c19 0 38 -5 41 -10
14 -22 35 12 35 56 0 26 6 49 16 59 12 11 13 20 6 27 -7 7 -1 24 20 54 27 40
47 56 48 37 1 -5 3 -57 6 -118 7 -141 24 -205 66 -240 29 -25 33 -26 44 -10
14 18 30 110 40 220 3 38 14 97 25 130 21 67 23 93 9 115 -7 11 -19 -7 -52
-79 l-43 -93 -26 81 c-14 45 -25 99 -25 121 2 54 -14 52 -76 -10 -28 -27 -54
-50 -58 -50 -13 0 -23 86 -16 131 8 50 40 115 74 151 28 30 27 42 -1 27z m-90
-94 c-16 -14 -26 -29 -22 -34 9 -16 15 -73 15 -169 l1 -92 22 15 c13 8 36 33
52 54 30 40 55 59 55 41 0 -5 -22 -35 -49 -68 -63 -76 -82 -113 -83 -166 0
-41 -1 -43 -23 -32 -13 6 -20 15 -17 21 4 5 7 89 8 185 3 258 0 237 32 254 39
22 41 19 9 -9z m168 -300 c10 -73 24 -125 36 -125 5 0 18 13 27 30 9 16 20 30
23 30 3 0 0 -37 -8 -82 -18 -116 -23 -138 -33 -138 -18 0 -30 40 -34 116 -3
44 -12 102 -20 129 -18 56 -22 130 -7 105 6 -8 13 -37 16 -65z"/>
<path d="M1180 943 c-91 -164 -169 -338 -156 -350 2 -2 29 12 59 32 66 44 134
66 182 58 22 -3 35 -2 35 5 0 6 10 12 23 14 19 3 22 9 24 53 1 28 11 81 22
120 12 38 21 76 21 82 0 12 -128 83 -148 83 -5 0 -33 -44 -62 -97z m149 28
c25 -14 26 -29 5 -79 -14 -34 -16 -36 -26 -17 -21 37 -43 39 -80 7 -24 -20
-35 -81 -17 -93 17 -11 59 -2 81 18 15 13 15 12 6 -25 l-10 -40 -92 -26 c-50
-14 -95 -26 -99 -26 -13 0 135 278 155 291 13 8 51 3 77 -10z m-62 -135 c-8
-19 -37 -21 -37 -3 0 7 5 18 12 25 15 15 33 -1 25 -22z"/>
<path d="M1453 890 c-28 -12 -43 -40 -43 -85 0 -26 4 -34 13 -29 10 6 10 4 0
-7 -30 -32 3 -40 55 -13 37 18 42 44 10 44 -13 0 -30 4 -38 10 -12 7 -12 12 4
29 24 26 28 26 112 -1 75 -25 92 -42 43 -44 -18 -1 -50 -10 -73 -22 -23 -11
-48 -23 -57 -26 -36 -10 -93 -274 -60 -277 14 -1 57 -1 75 0 9 1 22 34 36 94
24 99 57 187 71 187 4 0 11 -4 14 -10 15 -24 41 -8 59 36 l19 47 -24 18 c-28
21 -140 59 -172 58 -12 0 -32 -4 -44 -9z"/>
<path d="M1764 785 c-36 -15 -63 -68 -47 -94 5 -9 25 -17 43 -19 40 -4 80 30
80 67 0 49 -29 66 -76 46z m36 -60 c0 -7 -11 -12 -25 -12 -27 0 -32 11 -12 31
13 15 37 3 37 -19z"/>
<path d="M1639 562 c-63 -131 -64 -137 -39 -162 39 -39 57 -24 124 107 l63
121 -41 16 c-23 9 -46 16 -51 16 -6 0 -31 -44 -56 -98z m87 34 c-9 -37 -77
-176 -87 -176 -22 0 -17 27 16 98 20 42 42 83 47 90 17 20 31 14 24 -12z"/>
<path d="M2633 540 c-16 -7 -23 -18 -24 -37 0 -44 -7 -151 -14 -229 -6 -78 -8
-75 58 -94 30 -10 28 -16 32 95 1 33 3 66 3 73 2 14 32 17 32 3 0 -17 27 -5
64 27 20 18 39 32 42 32 3 0 3 -15 0 -32 -21 -138 -18 -198 9 -198 8 0 48 18
90 40 73 38 77 39 105 25 53 -27 63 -13 74 96 3 30 8 69 12 85 5 26 2 32 -21
42 -51 23 -123 12 -160 -25 -18 -17 -18 -16 -12 22 8 48 -1 65 -37 69 -21 3
-30 -2 -36 -20 -6 -15 -18 -24 -31 -24 -12 0 -30 -11 -41 -25 -21 -27 -38 -33
-38 -12 0 19 -60 97 -73 96 -7 0 -22 -4 -34 -9z m72 -92 c24 -35 35 -44 45
-37 27 17 35 9 10 -10 -25 -19 -25 -19 -42 7 -9 14 -26 30 -37 34 -19 7 -20 2
-20 -87 1 -93 -14 -152 -31 -125 -7 12 -5 104 4 160 3 14 5 44 5 68 1 57 25
54 66 -10z m183 28 c3 -15 1 -16 -17 -6 -12 6 -19 16 -15 21 9 15 28 5 32 -15z
m177 -50 c-5 -22 -13 -88 -14 -118 -1 -13 -9 -18 -31 -18 -17 0 -47 -7 -67
-15 -19 -8 -39 -15 -44 -15 -15 0 2 114 18 123 8 5 29 21 46 37 50 43 101 47
92 6z m-180 -8 c-3 -18 -6 -70 -6 -115 -2 -74 -4 -83 -21 -83 -14 0 -18 5 -14
18 2 9 8 44 11 77 3 33 8 69 10 80 2 11 4 28 4 38 1 9 5 17 11 17 5 0 7 -15 5
-32z"/>
<path d="M2982 404 c-26 -18 -56 -71 -44 -78 16 -9 67 -16 85 -10 14 4 17 13
13 45 -8 63 -16 70 -54 43z"/>
</g>
</svg>
